<svg width="65" height="64" viewBox="0 0 65 64" fill="none" xmlns="http://www.w3.org/2000/svg">
<path d="M30.8204 43.8004V21.5502L33.254 23.9838H25.9532V19.4643H36.4525V43.8004H30.8204Z" fill="url(#paint0_linear_323_25)"/>
<path d="M64.0067 31.5066C64.0067 48.9073 49.9007 63.0133 32.5 63.0133C15.0994 63.0133 0.993408 48.9073 0.993408 31.5066C0.993408 14.106 15.0994 0 32.5 0C49.9007 0 64.0067 14.106 64.0067 31.5066ZM7.10638 31.5066C7.10638 45.5312 18.4755 56.9003 32.5 56.9003C46.5246 56.9003 57.8937 45.5312 57.8937 31.5066C57.8937 17.4821 46.5246 6.11297 32.5 6.11297C18.4755 6.11297 7.10638 17.4821 7.10638 31.5066Z" fill="url(#paint1_linear_323_25)"/>
<defs>
<linearGradient id="paint0_linear_323_25" x1="32.5" y1="0" x2="32.5" y2="63.0133" gradientUnits="userSpaceOnUse">
<stop stop-color="#F53D3D"/>
<stop offset="0.492708" stop-color="#EFBD3C"/>
<stop offset="1" stop-color="#EFBD3C" stop-opacity="0"/>
</linearGradient>
<linearGradient id="paint1_linear_323_25" x1="32.5" y1="0" x2="32.5" y2="63.0133" gradientUnits="userSpaceOnUse">
<stop stop-color="#F53D3D"/>
<stop offset="0.492708" stop-color="#EFBD3C"/>
<stop offset="1" stop-color="#EFBD3C" stop-opacity="0"/>
</linearGradient>
</defs>
</svg>
