<svg width="64" height="64" viewBox="0 0 64 64" fill="none" xmlns="http://www.w3.org/2000/svg">
<path d="M23.3195 43.9482V40.2978L32.7063 31.4325C33.4479 30.7604 33.9926 30.1578 34.3403 29.6247C34.6879 29.0916 34.9197 28.6049 35.0356 28.1645C35.1746 27.7241 35.2442 27.3185 35.2442 26.9477C35.2442 25.9743 34.9081 25.2326 34.236 24.7227C33.587 24.1896 32.6251 23.9231 31.3504 23.9231C30.3306 23.9231 29.3803 24.1201 28.4996 24.5141C27.642 24.9081 26.9119 25.5223 26.3093 26.3567L22.2069 23.7145C23.134 22.3238 24.432 21.2229 26.1007 20.4117C27.7695 19.6005 29.6932 19.1949 31.8719 19.1949C33.6797 19.1949 35.2558 19.4962 36.6 20.0988C37.9675 20.6783 39.0221 21.501 39.7637 22.5672C40.5286 23.6334 40.911 24.9081 40.911 26.3915C40.911 27.1795 40.8067 27.9675 40.5981 28.7555C40.4127 29.5204 40.0187 30.3316 39.4161 31.1891C38.8366 32.0467 37.9791 33.0086 36.8434 34.0747L29.0558 41.4103L27.9781 39.3591H41.7106V43.9482H23.3195Z" fill="url(#paint0_linear_323_26)"/>
<path d="M63.9999 31.6545C63.9999 49.0551 49.894 63.1611 32.4933 63.1611C15.0927 63.1611 0.986694 49.0551 0.986694 31.6545C0.986694 14.2538 15.0927 0.147827 32.4933 0.147827C49.894 0.147827 63.9999 14.2538 63.9999 31.6545ZM7.09967 31.6545C7.09967 45.679 18.4688 57.0481 32.4933 57.0481C46.5178 57.0481 57.887 45.679 57.887 31.6545C57.887 17.6299 46.5178 6.2608 32.4933 6.2608C18.4688 6.2608 7.09967 17.6299 7.09967 31.6545Z" fill="url(#paint1_linear_323_26)"/>
<defs>
<linearGradient id="paint0_linear_323_26" x1="32.4933" y1="0.147827" x2="32.4933" y2="63.1611" gradientUnits="userSpaceOnUse">
<stop stop-color="#F53D3D"/>
<stop offset="0.492708" stop-color="#EFBD3C"/>
<stop offset="1" stop-color="#EFBD3C" stop-opacity="0"/>
</linearGradient>
<linearGradient id="paint1_linear_323_26" x1="32.4933" y1="0.147827" x2="32.4933" y2="63.1611" gradientUnits="userSpaceOnUse">
<stop stop-color="#F53D3D"/>
<stop offset="0.492708" stop-color="#EFBD3C"/>
<stop offset="1" stop-color="#EFBD3C" stop-opacity="0"/>
</linearGradient>
</defs>
</svg>
