<svg width="64" height="64" viewBox="0 0 64 64" fill="none" xmlns="http://www.w3.org/2000/svg">
<path d="M30.4332 44.5133C28.7413 44.5133 27.0609 44.2931 25.3922 43.8527C23.7234 43.3892 22.3096 42.7402 21.1507 41.9058L23.341 37.5948C24.2681 38.267 25.3458 38.8001 26.5742 39.1941C27.8026 39.5881 29.0426 39.7851 30.2942 39.7851C31.708 39.7851 32.8205 39.507 33.6317 38.9507C34.4429 38.3945 34.8485 37.6296 34.8485 36.6562C34.8485 35.7291 34.4893 34.999 33.7708 34.4659C33.0523 33.9328 31.8934 33.6663 30.2942 33.6663H27.7215V29.9463L34.5008 22.2631L35.1266 24.2795H22.3675V19.7599H39.4028V23.4103L32.6582 31.0936L29.8074 29.4596H31.4414C34.4313 29.4596 36.6911 30.1318 38.2208 31.476C39.7505 32.8203 40.5154 34.547 40.5154 36.6562C40.5154 38.0236 40.1561 39.31 39.4376 40.5152C38.7191 41.6972 37.6182 42.6591 36.1348 43.4008C34.6515 44.1424 32.751 44.5133 30.4332 44.5133Z" fill="url(#paint0_linear_323_27)"/>
<path d="M63.0133 31.8023C63.0133 49.2029 48.9073 63.3089 31.5066 63.3089C14.106 63.3089 0 49.2029 0 31.8023C0 14.4017 14.106 0.295654 31.5066 0.295654C48.9073 0.295654 63.0133 14.4017 63.0133 31.8023ZM6.11297 31.8023C6.11297 45.8268 17.4821 57.1959 31.5066 57.1959C45.5312 57.1959 56.9003 45.8268 56.9003 31.8023C56.9003 17.7778 45.5312 6.40863 31.5066 6.40863C17.4821 6.40863 6.11297 17.7778 6.11297 31.8023Z" fill="url(#paint1_linear_323_27)"/>
<defs>
<linearGradient id="paint0_linear_323_27" x1="31.5066" y1="0.295654" x2="31.5066" y2="63.3089" gradientUnits="userSpaceOnUse">
<stop stop-color="#F53D3D"/>
<stop offset="0.492708" stop-color="#EFBD3C"/>
<stop offset="1" stop-color="#EFBD3C" stop-opacity="0"/>
</linearGradient>
<linearGradient id="paint1_linear_323_27" x1="31.5066" y1="0.295654" x2="31.5066" y2="63.3089" gradientUnits="userSpaceOnUse">
<stop stop-color="#F53D3D"/>
<stop offset="0.492708" stop-color="#EFBD3C"/>
<stop offset="1" stop-color="#EFBD3C" stop-opacity="0"/>
</linearGradient>
</defs>
</svg>
