<svg width="64" height="64" viewBox="0 0 64 64" fill="none" xmlns="http://www.w3.org/2000/svg">
<path d="M20.2622 39.1333V35.3438L31.735 19.9078H37.6452L26.4158 35.3438L23.6693 34.5442H42.8253V39.1333H20.2622ZM33.369 44.2439V39.1333L33.5428 34.5442V29.9899H38.862V44.2439H33.369Z" fill="url(#paint0_linear_323_28)"/>
<path d="M63.9999 31.9501C63.9999 49.3507 49.894 63.4567 32.4933 63.4567C15.0927 63.4567 0.986694 49.3507 0.986694 31.9501C0.986694 14.5495 15.0927 0.443481 32.4933 0.443481C49.894 0.443481 63.9999 14.5495 63.9999 31.9501ZM7.09967 31.9501C7.09967 45.9746 18.4688 57.3438 32.4933 57.3438C46.5178 57.3438 57.887 45.9746 57.887 31.9501C57.887 17.9256 46.5178 6.55645 32.4933 6.55645C18.4688 6.55645 7.09967 17.9256 7.09967 31.9501Z" fill="url(#paint1_linear_323_28)"/>
<defs>
<linearGradient id="paint0_linear_323_28" x1="32.4933" y1="0.443481" x2="32.4933" y2="63.4567" gradientUnits="userSpaceOnUse">
<stop stop-color="#F53D3D"/>
<stop offset="0.492708" stop-color="#EFBD3C"/>
<stop offset="1" stop-color="#EFBD3C" stop-opacity="0"/>
</linearGradient>
<linearGradient id="paint1_linear_323_28" x1="32.4933" y1="0.443481" x2="32.4933" y2="63.4567" gradientUnits="userSpaceOnUse">
<stop stop-color="#F53D3D"/>
<stop offset="0.492708" stop-color="#EFBD3C"/>
<stop offset="1" stop-color="#EFBD3C" stop-opacity="0"/>
</linearGradient>
</defs>
</svg>
